<?xml version="1.0" standalone="no"?>
<!DOCTYPE svg PUBLIC "-//W3C//DTD SVG 20010904//EN"
 "http://www.w3.org/TR/2001/REC-SVG-20010904/DTD/svg10.dtd">
<svg version="1.0" xmlns="http://www.w3.org/2000/svg"
 width="1024.000000pt" height="863.000000pt" viewBox="0 0 1024.000000 863.000000"
 preserveAspectRatio="xMidYMid meet">
<g transform="translate(0.000000,863.000000) scale(0.100000,-0.100000)"
fill="#000000" stroke="none">
<path d="M3490 6242 l0 -371 -47 -75 c-27 -42 -50 -76 -53 -76 -3 0 -23 27
-45 59 -124 181 -197 281 -206 281 -6 0 -8 -7 -5 -15 55 -144 156 -427 155
-437 0 -18 -133 -233 -143 -233 -5 0 -25 49 -47 109 -34 98 -58 146 -60 121 0
-6 0 -63 1 -127 l1 -116 -165 -208 c-120 -151 -166 -215 -168 -238 l-3 -31
-76 -3 -77 -3 -28 35 c-16 19 -88 126 -160 238 l-131 203 -23 125 c-12 69 -24
127 -26 129 -12 13 -24 -26 -44 -141 l-22 -127 72 -138 c40 -76 76 -142 80
-148 4 -5 10 -19 13 -30 7 -19 -165 154 -330 333 l-77 83 18 242 c9 133 21
296 27 361 8 109 7 138 -6 125 -2 -3 -20 -63 -39 -134 -19 -72 -44 -166 -56
-210 -12 -44 -32 -118 -44 -164 -12 -47 -26 -86 -31 -87 -6 -1 -46 41 -89 94
l-80 96 -93 366 c-51 201 -93 368 -93 373 0 4 -5 7 -11 7 -8 0 -9 -17 -5 -52
3 -29 13 -147 21 -263 9 -115 21 -287 28 -382 l13 -172 320 -322 c175 -177
338 -340 362 -363 44 -44 50 -60 86 -266 5 -27 21 -47 72 -90 l65 -55 -5 -110
c-3 -60 -13 -270 -22 -466 l-17 -355 31 -90 c17 -49 70 -195 117 -324 48 -129
96 -262 107 -294 61 -174 53 -164 184 -238 l119 -66 18 -59 c21 -67 103 -466
142 -698 l28 -159 -18 -221 c-9 -121 -18 -242 -19 -270 l-1 -50 164 -3 c91 -1
168 1 173 6 5 5 -1 96 -12 203 -36 348 -37 329 3 459 20 63 61 203 91 310 67
234 59 214 153 366 l75 122 261 5 c231 4 562 30 655 52 12 3 41 25 63 48 49
51 36 63 158 -153 48 -85 102 -179 119 -208 18 -29 32 -55 32 -57 0 -2 32 -59
71 -127 l72 -123 -26 -217 -26 -217 -130 -211 c-72 -116 -131 -213 -131 -215
0 -10 269 -5 275 6 4 5 45 121 92 257 125 366 264 775 270 793 3 10 -38 82
-102 179 -59 90 -109 169 -112 177 -5 12 1 14 51 17 7 1 60 -42 117 -94 177
-163 242 -223 294 -271 28 -26 68 -63 90 -82 22 -19 52 -45 67 -58 20 -18 46
-78 104 -234 42 -115 88 -239 101 -275 14 -36 34 -93 46 -127 l21 -62 -27
-127 c-14 -70 -24 -131 -21 -136 3 -4 59 -8 125 -8 l119 0 0 33 c0 17 -5 59
-10 92 -5 33 -17 114 -25 180 -9 66 -32 206 -52 310 -20 105 -55 293 -77 419
l-42 229 -174 108 -175 107 -21 64 c-12 34 -46 120 -78 190 l-56 128 64 323
64 322 -24 110 c-13 61 -26 120 -29 132 -4 16 -49 43 -192 113 l-188 92 -225
29 c-124 16 -265 34 -315 40 -91 11 -202 6 -1180 -47 -159 -8 -364 -16 -455
-17 l-165 -2 -12 60 c-24 113 -26 196 -9 325 46 352 53 387 83 429 30 42 178
246 380 525 134 183 268 414 259 443 -3 10 -10 52 -16 93 -5 41 -24 165 -41
275 -17 110 -36 236 -42 279 -7 45 -18 81 -25 84 -9 3 -12 -76 -12 -366z m85
-171 l34 -215 -70 -123 c-65 -115 -94 -159 -254 -378 -33 -45 -123 -168 -199
-273 -133 -184 -162 -213 -181 -182 -6 10 171 314 341 587 35 56 64 111 64
122 0 11 -14 57 -31 103 -86 230 -91 245 -66 217 12 -14 55 -74 96 -133 41
-58 78 -106 81 -106 8 0 35 39 94 133 l36 57 1 268 c1 212 4 254 11 202 5 -36
25 -162 43 -279z m-2130 149 c20 -80 54 -214 75 -298 41 -165 34 -154 164
-309 53 -65 76 -85 76 -68 0 5 64 242 119 440 l20 70 0 -45 c1 -45 -23 -389
-34 -510 l-6 -65 218 -236 c120 -129 229 -246 241 -260 13 -13 30 -36 37 -50
13 -24 12 -28 -19 -58 l-33 -32 -374 374 c-206 206 -398 399 -426 428 l-53 55
-25 343 c-27 368 -27 377 -21 370 2 -2 21 -69 41 -149z m754 -790 c14 -82 23
-100 183 -345 l90 -140 -37 -32 c-21 -18 -41 -33 -45 -33 -3 0 -61 105 -129
233 -108 204 -121 236 -116 267 16 98 28 141 34 134 5 -5 14 -43 20 -84z m898
-2 l33 -92 -127 -210 c-69 -116 -127 -213 -129 -215 -1 -1 -33 7 -69 19 -60
20 -65 24 -52 39 8 9 78 96 156 193 l141 177 0 91 c0 49 3 90 8 90 4 0 22 -41
39 -92z m-217 -543 c53 -14 58 -31 42 -135 -6 -36 -20 -139 -32 -230 -20 -152
-40 -230 -61 -230 -5 0 -19 21 -33 48 -18 36 -27 76 -35 167 -6 66 -17 177
-25 247 -7 70 -11 138 -9 151 l5 25 51 -15 c29 -8 72 -21 97 -28z m-364 2 c20
-30 134 -462 134 -504 0 -10 -7 -27 -15 -37 -22 -29 -19 -46 21 -104 20 -30
34 -56 31 -58 -2 -2 -28 7 -58 20 l-54 24 -69 148 c-38 82 -96 203 -128 269
-32 66 -58 125 -58 132 0 13 149 142 165 143 6 0 20 -15 31 -33z m-268 -61
c75 -81 127 -219 91 -242 -6 -3 -35 17 -64 46 -52 51 -53 55 -65 132 -6 44
-14 86 -17 94 -10 27 15 13 55 -30z m479 -181 c12 -121 22 -228 22 -237 1 -14
-7 -18 -37 -18 l-39 0 -21 83 c-70 275 -92 366 -92 380 0 12 13 15 72 14 l73
-2 22 -220z m-258 -239 l93 -194 57 -26 c109 -49 108 -48 136 -18 14 15 40 46
58 69 56 74 47 95 112 -265 l13 -73 -49 -202 c-27 -111 -65 -265 -84 -342 -18
-77 -37 -153 -40 -170 -7 -30 -10 -26 -226 195 l-220 225 6 135 c3 74 12 281
20 460 8 179 15 342 15 363 0 20 4 37 8 37 5 0 50 -87 101 -194z m314 -86 c15
-28 27 -52 27 -55 0 -3 -19 -26 -42 -50 l-41 -46 -44 67 c-23 36 -43 70 -43
75 0 5 7 21 16 34 13 20 25 25 58 25 39 0 42 -3 69 -50z m1837 -178 c0 -5 -18
-53 -39 -108 -22 -54 -67 -171 -101 -259 -34 -88 -72 -187 -85 -220 -13 -33
-48 -123 -78 -200 -29 -77 -105 -272 -167 -432 l-113 -293 -116 0 c-64 0 -146
-3 -183 -7 -47 -4 -68 -2 -68 5 0 6 20 45 45 85 l45 74 -56 119 c-31 66 -71
151 -89 189 -18 39 -62 133 -98 210 -63 135 -121 259 -185 395 -116 246 -169
366 -164 371 4 4 124 12 267 18 143 6 339 16 435 21 96 5 279 15 405 21 127 6
235 12 240 14 21 7 105 5 105 -3z m350 -32 l275 -32 216 -221 216 -220 -8 -36
c-5 -20 -33 -163 -64 -319 l-56 -283 61 -141 c33 -77 59 -142 57 -144 -4 -5
-385 -71 -457 -80 l-45 -6 -165 161 c-148 144 -169 160 -200 161 -19 0 -162
-7 -318 -16 -156 -8 -289 -14 -296 -12 -10 2 7 57 60 193 41 105 90 231 108
280 19 50 60 153 90 230 30 77 81 210 114 296 94 242 89 232 114 226 13 -3
147 -19 298 -37z m-1765 -187 c38 -82 94 -202 125 -268 32 -66 69 -145 83
-175 32 -71 113 -244 214 -460 77 -163 103 -222 103 -232 0 -5 -46 -86 -102
-179 -57 -93 -114 -188 -128 -211 -22 -36 -49 -57 -175 -130 -83 -48 -156 -88
-162 -88 -10 0 -13 41 -13 170 0 97 -6 211 -15 267 -17 116 -78 560 -100 723
-38 291 -84 619 -94 660 -17 73 -22 70 92 70 l104 0 68 -147z m2284 37 l135
-67 22 -99 c12 -54 20 -101 17 -104 -2 -3 -52 45 -110 105 -58 61 -135 141
-172 178 -75 77 -75 77 108 -13z m-2504 -405 c20 -143 40 -289 45 -325 84
-609 97 -710 91 -714 -14 -7 -245 96 -361 162 l-125 70 -23 59 c-56 142 -255
690 -259 713 -3 18 54 -34 201 -185 139 -141 208 -206 214 -198 4 7 45 166 91
355 47 189 86 339 88 333 1 -5 19 -127 38 -270z m1805 -634 c0 -5 -3 -11 -7
-13 -5 -1 -48 -48 -97 -103 -49 -55 -95 -105 -102 -111 -8 -6 -51 -15 -97 -18
-45 -4 -125 -13 -177 -21 -52 -7 -130 -17 -173 -20 l-78 -7 26 68 c15 38 38
99 52 135 l25 67 146 7 c81 4 201 11 267 15 179 11 215 11 215 1z m204 -156
l159 -153 -27 -219 c-37 -308 -36 -303 -45 -303 -7 0 -87 135 -159 270 -20 36
-67 121 -106 190 -38 69 -83 149 -99 178 l-29 52 64 70 c35 38 68 69 73 69 6
0 81 -69 169 -154z m701 -130 c7 -27 38 -150 69 -273 32 -123 56 -226 53 -228
-3 -3 -22 12 -43 32 -32 30 -194 180 -441 408 -24 22 -43 42 -43 46 0 4 48 15
108 24 59 10 139 24 177 31 103 20 107 18 120 -40z m-2777 -64 c9 -5 61 -27
114 -48 l98 -38 0 -360 0 -359 -32 -28 c-18 -15 -36 -28 -39 -28 -3 0 -18 75
-33 168 -46 275 -74 424 -106 564 -16 72 -30 133 -30 135 0 5 10 3 28 -6z
m2390 -192 l83 -127 -29 -93 c-17 -52 -80 -240 -142 -419 -61 -179 -128 -374
-149 -435 l-37 -110 -108 0 c-59 0 -112 3 -118 6 -5 3 42 89 105 190 62 101
119 193 125 204 6 12 20 106 32 210 11 105 36 303 55 440 19 138 37 269 41
293 l5 43 27 -38 c15 -21 65 -95 110 -164z m548 133 c60 -37 129 -79 154 -94
l45 -26 43 -219 c23 -120 56 -290 73 -378 34 -174 98 -622 91 -630 -9 -8 -212
-6 -212 3 0 4 11 62 25 130 l26 122 -50 132 c-177 473 -195 529 -252 756 -33
130 -62 245 -65 255 -3 9 -1 17 4 17 5 0 58 -30 118 -68z m-2420 -279 c-13
-43 -42 -148 -66 -233 -85 -304 -87 -310 -153 -410 l-62 -95 -3 315 c-1 173 0
320 2 326 4 9 104 72 251 156 51 29 54 24 31 -59z m-306 -629 c1 -71 1 -200 1
-286 l-1 -158 -55 0 -55 0 0 33 c0 17 7 109 15 202 8 94 15 194 15 224 0 49 3
57 36 88 20 19 38 32 40 30 2 -1 4 -61 4 -133z m179 -179 c12 -115 21 -222 21
-237 l0 -28 -90 0 -90 0 0 150 0 150 63 94 c34 52 65 92 68 88 3 -4 16 -101
28 -217z"/>
</g>
</svg>
